Coordinates
version=1
nRows=21
nColumns=22
inDegrees=yes

Units are S.I. units (second, meters, Newtons, ...)
If the header above contains a line with 'inDegrees', this indicates whether rotational values are in degrees (yes) or radians (no).

endheader
time	pelvis_tilt	pelvis_list	pelvis_rotation	pelvis_tx	pelvis_ty	pelvis_tz	hip_flexion_r	hip_adduction_r	hip_rotation_r	knee_angle_r	ankle_angle_r	subtalar_angle_r	hip_flexion_l	hip_adduction_l	hip_rotation_l	knee_angle_l	ankle_angle_l	subtalar_angle_l	lumbar_extension	lumbar_bending	lumbar_rotation
      3.91000000	     -3.77609346	     -2.41296053	     -2.92704386	     -1.01005963	      0.91010251	      0.02286850	     -5.48859102	      2.86099944	     -7.99992473	    -17.60022770	     21.02060910	      5.23401636	     32.08988014	     -6.49827521	     -8.44731099	    -19.66197516	     -8.22248199	      3.11140761	    -13.75408572	     -2.18161770	     10.92174955
      3.92000000	     -3.43556038	     -2.51191133	     -2.95072350	     -1.01765899	      0.91055761	      0.02452058	     -5.43806344	      3.13596630	     -8.03817550	    -17.47220446	     21.39591976	      4.52441030	     32.18286434	     -6.79985738	     -8.21572223	    -19.83714410	     -8.73323223	      4.74630336	    -14.25193932	     -2.13887993	     10.85044237
      3.93000000	     -3.11176784	     -2.55990251	     -2.92972974	     -1.02492216	      0.91110309	      0.02600243	     -5.37591006	      3.36032508	     -8.10936855	    -17.36480049	     21.73294834	      3.78868846	     32.28654637	     -7.00586159	     -7.86727036	    -20.17421055	     -9.05674836	      6.09153421	    -14.67860828	     -2.14081966	     10.70639064
      3.94000000	     -2.81375402	     -2.56547220	     -2.88439602	     -1.03188084	      0.91174324	      0.02734089	     -5.28980015	      3.53903007	     -8.18664879	    -17.27669859	     22.02403271	      3.05461997	     32.41241490	     -7.13297143	     -7.42665834	    -20.69998470	     -9.20425448	      7.06876078	    -15.03143530	     -2.17606230	     10.52387449
      3.95000000	     -2.53426900	     -2.54679763	     -2.76825275	     -1.03854228	      0.91246703	      0.02845449	     -5.19499996	      3.68814154	     -8.30995544	    -17.20041612	     22.24748299	      2.42390786	     32.55803270	     -7.15966202	     -6.79766444	    -21.41801047	     -9.03915435	      7.50924914	    -15.32624280	     -2.20864659	     10.20762843
      3.96000000	     -2.27905965	     -2.52267728	     -2.63832902	     -1.04496025	      0.91328664	      0.02947128	     -5.07016762	      3.82362061	     -8.42213025	    -17.15381726	     22.41864898	      1.81066743	     32.73314195	     -7.14979562	     -6.10757988	    -22.34745004	     -8.68173677	      7.61904772	    -15.56426732	     -2.23574349	      9.89192535
      3.97000000	     -2.05094221	     -2.51148745	     -2.48468932	     -1.05115158	      0.91418402	      0.03037592	     -4.91291074	      3.96165140	     -8.53192548	    -17.13608742	     22.51570602	      1.20617824	     32.94610742	     -7.11621245	     -5.36744960	    -23.48519686	     -8.10329019	      7.36217843	    -15.74749073	     -2.23185629	      9.54931838
      3.98000000	     -1.85044610	     -2.51005957	     -2.32671238	     -1.05712721	      0.91515899	      0.03120864	     -4.71459308	      4.09334296	     -8.63865368	    -17.15885660	     22.52671700	      0.65673218	     33.18057598	     -7.07347232	     -4.65701870	    -24.79624895	     -7.28699466	      6.70880358	    -15.87796647	     -2.20808115	      9.21587114
      3.99000000	     -1.65286704	     -2.53123186	     -2.16959654	     -1.06290987	      0.91625986	      0.03197123	     -4.50312050	      4.23044217	     -8.72716063	    -17.21907735	     22.43249259	      0.26559214	     33.37978437	     -7.02570312	     -3.92994022	    -26.21164983	     -6.30788170	      5.86175783	    -15.99172077	     -2.15105967	      8.90834076
      4.00000000	     -1.46338325	     -2.56688810	     -2.02012820	     -1.06849281	      0.91746602	      0.03268892	     -4.29031842	      4.36944008	     -8.79730488	    -17.28271378	     22.24856956	     -0.03003343	     33.54224680	     -6.98434713	     -3.26567904	    -27.70707479	     -5.23012410	      4.93621770	    -16.08194422	     -2.07344755	      8.62782200
      4.01000000	     -1.28545538	     -2.61808073	     -1.87648122	     -1.07388429	      0.91875684	      0.03336595	     -4.08380983	      4.51501532	     -8.86926260	    -17.32767234	     21.95205378	     -0.25968884	     33.66399640	     -6.95822453	     -2.68535344	    -29.25106465	     -4.12037505	      4.04886675	    -16.14608915	     -1.97504119	      8.37135190
      4.02000000	     -1.10909021	     -2.63923062	     -1.77720593	     -1.07910851	      0.92014199	      0.03403227	     -3.87795544	      4.61492333	     -8.89750209	    -17.38431269	     21.66282728	     -0.46277206	     33.68110928	     -6.91400592	     -2.20012648	    -30.75456853	     -2.95467141	      3.11909580	    -16.19896304	     -1.91855451	      8.18529333
      4.03000000	     -0.94430977	     -2.66383945	     -1.67117757	     -1.08412334	      0.92156930	      0.03465884	     -3.71786224	      4.72150412	     -8.94324516	    -17.35257962	     21.29519357	     -0.64382402	     33.64085123	     -6.88001585	     -1.80517548	    -32.24992395	     -1.83257899	      2.34773783	    -16.22323203	     -1.85919816	      7.99856215
      4.04000000	     -0.77705823	     -2.66980376	     -1.58757199	     -1.08900110	      0.92304500	      0.03523929	     -3.58021229	      4.80521519	     -8.94669439	    -17.30244569	     20.95341284	     -0.81342610	     33.48738490	     -6.82383721	     -1.43470527	    -33.66217528	     -0.72486999	      1.71842864	    -16.24999453	     -1.82347951	      7.83631509
      4.05000000	     -0.63975608	     -2.61585552	     -1.52650860	     -1.09364865	      0.92449438	      0.03576856	     -3.45580511	      4.81363961	     -9.01806599	    -17.19120848	     20.58128664	     -1.04826231	     33.27198473	     -6.73867747	     -1.23035562	    -35.02024189	      0.32679834	      0.91353256	    -16.22023217	     -1.86085085	      7.71092449
      4.06000000	     -0.50032705	     -2.56689349	     -1.46350876	     -1.09814887	      0.92592049	      0.03625424	     -3.37594314	      4.83352892	     -9.06002477	    -17.02403095	     20.23021892	     -1.26059034	     32.97030498	     -6.64997431	     -1.01020861	    -36.31348413	      1.32778175	      0.35213579	    -16.19114879	     -1.89650673	      7.56688950
      4.07000000	     -0.37149151	     -2.50977096	     -1.41365880	     -1.10250823	      0.92727929	      0.03668193	     -3.31562215	      4.84207296	     -9.09309089	    -16.82026651	     19.90326614	     -1.48234591	     32.60384469	     -6.55697052	     -0.81793376	    -37.55220842	      2.27035230	     -0.14088878	    -16.14796514	     -1.94096530	      7.42460883
      4.08000000	     -0.25852984	     -2.45230598	     -1.38333813	     -1.10676038	      0.92852799	      0.03707714	     -3.24684627	      4.84512737	     -9.09976838	    -16.62220050	     19.61894992	     -1.66346303	     32.18941339	     -6.47225571	     -0.64386858	    -38.74690579	      3.16444361	     -0.44733137	    -16.09141166	     -1.98845172	      7.27306780
      4.09000000	     -0.14923457	     -2.41857270	     -1.36637753	     -1.11089423	      0.92967840	      0.03745518	     -3.20829988	      4.87424894	     -9.08253934	    -16.37767263	     19.34609309	     -1.90736614	     31.72993778	     -6.41981965	     -0.48424851	    -39.91449991	      3.98524820	     -0.87973161	    -16.03196343	     -2.01543058	      7.14722059
      4.10000000	     -0.07366275	     -2.37294748	     -1.38409208	     -1.11490831	      0.93067372	      0.03782234	     -3.12796155	      4.87795815	     -9.06034894	    -16.16343580	     19.10087148	     -2.14712275	     31.24505956	     -6.37651907	     -0.37765841	    -41.03815134	      4.76706961	     -1.26527263	    -15.93114162	     -2.06341965	      7.04804157
      4.11000000	     -0.00822585	     -2.38039209	     -1.41355034	     -1.11886166	      0.93151958	      0.03817385	     -3.02965450	      4.93511551	     -8.98853856	    -15.97840835	     18.89304783	     -2.32193789	     30.74395167	     -6.39476538	     -0.25765981	    -42.15423754	      5.50560677	     -1.48075977	    -15.83107019	     -2.05260858	      6.93496266
